<svg xmlns="http://www.w3.org/2000/svg" width="1024" height="1024" viewBox="0 0 1024 1024" version="1.1">
	<path d="M 334.467 125.462 C 321.021 128.412, 324.793 125.023, 233.248 216.402 L 147.997 301.500 148.013 553 C 148.031 831.837, 147.496 810.005, 154.682 824.945 C 157.411 830.620, 160.230 834.362, 166.389 840.485 C 175.738 849.780, 184.698 854.982, 196.609 858.028 C 204.160 859.959, 208.564 860, 409.346 860 C 595.301 860, 614.983 859.849, 620.936 858.374 C 640.547 853.516, 655.927 841.196, 664.473 823.500 C 671.007 809.971, 671 810.088, 671 719.303 L 671 637.521 653 655.500 L 635 673.479 635 738.152 L 635 802.825 631.750 809.073 C 628.187 815.924, 621.923 821.136, 615.020 822.995 C 612.467 823.682, 544.182 823.934, 407.358 823.760 L 203.500 823.500 199 821.137 C 192.850 817.908, 190.260 815.365, 187.151 809.500 L 184.500 804.500 184.242 565.500 L 183.984 326.500 241.742 326.445 C 298.044 326.391, 299.676 326.335, 306.500 324.227 C 326.502 318.047, 341.328 302.102, 345.536 282.246 C 346.679 276.849, 346.969 263.951, 346.983 217.736 L 347 159.972 481.250 160.236 L 615.500 160.500 619.628 162.708 C 621.899 163.923, 625.536 166.938, 627.710 169.408 C 635.383 178.125, 635 172.090, 635 284.354 L 635 384.479 653 366.500 L 671 348.521 670.983 265.010 C 670.963 171.346, 671.139 173.933, 663.799 159.064 C 656.548 144.372, 643.833 133.408, 626.275 126.705 L 620.500 124.500 480.500 124.319 C 367.521 124.173, 339.336 124.394, 334.467 125.462 M 258.711 239.250 L 208.201 290.500 250.350 290.796 C 278.676 290.994, 293.735 290.734, 296.267 290.001 C 298.338 289.401, 301.571 287.559, 303.452 285.908 C 309.904 280.243, 310.020 279.318, 310.273 231.250 C 310.398 207.462, 310.212 188, 309.860 188 C 309.509 188, 286.491 211.063, 258.711 239.250 M 787.191 279.025 C 772.846 282.783, 775.021 280.849, 694.483 361.437 C 551.791 504.216, 458.614 599.119, 456.331 604 C 455.174 606.475, 448.605 624.475, 441.733 644 C 408.032 739.761, 409.219 736.025, 410.428 742.466 C 411.183 746.495, 415.888 752.373, 420.099 754.551 C 426.138 757.674, 430.907 756.594, 467.051 743.921 C 485.998 737.278, 514.892 727.162, 531.260 721.441 C 547.629 715.721, 562.254 710.391, 563.760 709.597 C 565.267 708.803, 575.048 699.457, 585.496 688.827 C 595.944 678.197, 631.513 642.275, 664.538 609 C 697.564 575.725, 759.052 513.504, 801.179 470.730 C 869.856 400.999, 878.156 392.231, 881.481 385.905 C 890.209 369.294, 889.311 348.979, 879.160 333.428 C 876.981 330.088, 866.386 318.762, 854.896 307.488 C 832.519 285.531, 828.231 282.512, 814.404 278.975 C 804.828 276.526, 796.671 276.541, 787.191 279.025 M 793 312.976 C 791.075 314.014, 781.963 322.436, 772.752 331.690 L 756.004 348.517 785.500 378 L 814.995 407.483 832.065 390.491 C 841.454 381.146, 849.767 372.310, 850.539 370.855 C 852.727 366.731, 853.302 360.835, 851.990 355.964 C 850.965 352.158, 848.156 348.843, 832.646 333.133 C 821.316 321.658, 812.997 314.057, 810.500 312.899 C 805.320 310.497, 797.534 310.531, 793 312.976 M 674.439 429.703 C 643.123 461.499, 591.098 514.549, 558.829 547.593 L 500.159 607.671 529.594 637.086 L 559.030 666.500 635.241 590 C 677.158 547.925, 729.577 495.273, 751.727 472.995 L 792.002 432.489 761.690 402.190 L 731.379 371.891 674.439 429.703 M 271.962 408.250 C 266.804 410.851, 263 417.135, 263 423.055 C 263 428.678, 266.873 435.007, 271.960 437.697 L 276.315 440 405.592 440 C 483.169 440, 535.851 439.627, 537.324 439.067 C 538.674 438.554, 541.397 436.713, 543.375 434.976 C 549.977 429.179, 550.556 418.981, 544.664 412.270 C 538.799 405.591, 547.869 406, 405.744 406 L 276.424 406 271.962 408.250 M 272.379 499.429 C 262.756 503.641, 260.073 517.458, 267.284 525.670 C 273.154 532.356, 267.100 532, 374.820 532 L 472.704 532 476.010 529.750 C 486.956 522.301, 487.242 508.496, 476.615 500.562 C 473.874 498.515, 473.115 498.498, 374.677 498.281 C 292.676 498.101, 274.960 498.300, 272.379 499.429 M 273.481 590.394 C 266.224 593.556, 261.712 602.859, 263.496 610.982 C 264.384 615.024, 269.529 620.905, 273.702 622.649 C 277.862 624.387, 392.139 624.654, 396.685 622.936 C 403.054 620.530, 408 613.388, 408 606.597 C 408 599.491, 404.370 594.061, 397.500 590.890 C 393.754 589.161, 389.784 589.045, 335 589.061 C 288.878 589.075, 275.861 589.357, 273.481 590.394 M 480.169 640.057 C 479.659 641.400, 474.058 657.125, 467.723 675 C 461.387 692.875, 455.885 708.288, 455.495 709.250 C 454.351 712.075, 450.562 713.214, 509.500 693.008 C 519.400 689.614, 527.828 686.523, 528.229 686.139 C 528.630 685.756, 518.189 674.681, 505.028 661.528 C 482.283 638.798, 481.052 637.734, 480.169 640.057" stroke="none" fill="#000000" fill-rule="evenodd"/>
</svg>